<?xml version="1.0" standalone="no"?>
<!DOCTYPE svg PUBLIC "-//W3C//DTD SVG 1.0//EN" "http://www.w3.org/TR/2001/REC-SVG-20010904/DTD/svg10.dtd">
<svg xmlns="http://www.w3.org/2000/svg" xmlns:xlink="http://www.w3.org/1999/xlink" id="body_1" width="30" height="30">

<g transform="matrix(0.6 0 0 0.6 0 0)">
	<g transform="matrix(0.49019608 0 0 0.49019608 0 0)">
		<g transform="matrix(0.19921875 0 0 0.19921875 0 0)">
            <path transform="matrix(1 0 0 1 255.625 -0.3125)"  d="M0 0C 1.0179062 0.00215515 2.0358124 0.0043103 3.0845642 0.00653076C 17.693636 0.05620146 32.025757 0.3070981 46.375 3.3125C 47.349854 3.5111768 48.324707 3.7098534 49.3291 3.9145508C 97.710976 14.0351715 141.69928 35.951687 177.375 70.3125C 178.36403 71.26069 178.36403 71.26069 179.37305 72.22803C 188.8613 81.372475 197.60121 90.66984 205.375 101.3125C 206.23306 102.46355 207.09114 103.61459 207.94922 104.765625C 213.98737 112.9568 219.34596 121.47054 224.375 130.3125C 224.73949 130.9443 225.10396 131.57611 225.47949 132.22705C 247.00981 169.84337 256.8376 212.56516 256.75 255.625C 256.74918 257.13928 256.74918 257.13928 256.74835 258.68414C 256.70758 275.19373 255.8003 291.11032 252.375 307.3125C 252.15538 308.35437 251.93575 309.39627 251.70947 310.46973C 242.71141 351.722 223.99081 390.2986 196.375 422.3125C 195.74078 423.0576 195.10657 423.80264 194.45312 424.5703C 182.64198 438.0753 169.8914 450.74667 155.375 461.3125C 154.22505 462.16898 153.07532 463.02576 151.92578 463.8828C 143.73566 469.92285 135.2312 475.30618 126.375 480.3125C 125.667786 480.7147 124.96058 481.11688 124.23193 481.53125C 101.11239 494.54776 75.9633 503.28107 50 508.625C 49.289486 508.77237 48.578968 508.9197 47.846924 509.07153C 32.20459 512.0579 16.56824 512.6873 0.6875 512.625C -0.27989104 512.62317 -1.2472821 512.62134 -2.243988 512.6195C -16.57691 512.57404 -30.52274 512.0652 -44.625 509.3125C -45.522026 509.15152 -46.419052 508.99057 -47.34326 508.8247C -96.03093 500.0147 -141.05505 476.57144 -176.625 442.3125C -177.28436 441.6804 -177.94371 441.04825 -178.62305 440.39697C -188.1113 431.25253 -196.85121 421.95517 -204.625 411.3125C -205.48306 410.16144 -206.34114 409.0104 -207.19922 407.85938C -213.23737 399.66818 -218.59596 391.15445 -223.625 382.3125C -223.98949 381.6807 -224.35396 381.0489 -224.72949 380.39795C -239.66086 354.31088 -249.1342 324.9775 -253.625 295.3125C -253.80232 294.19366 -253.97966 293.07486 -254.16235 291.92212C -255.84377 280.20013 -255.98235 268.5775 -255.9375 256.75C -255.93427 255.21939 -255.93427 255.21939 -255.93097 253.65787C -255.88133 239.0304 -255.6342 224.67986 -252.625 210.3125C -252.42633 209.33765 -252.22765 208.3628 -252.02295 207.3584C -241.90233 158.97652 -219.98581 114.98822 -185.625 79.3125C -184.99287 78.653145 -184.36075 77.99379 -183.70947 77.31445C -174.56502 67.826195 -165.26765 59.086296 -154.625 51.3125C -153.47395 50.454437 -152.3229 49.596367 -151.17188 48.73828C -142.98224 42.700726 -134.47961 37.31793 -125.625 32.3125C -124.917786 31.910313 -124.21058 31.508125 -123.48193 31.09375C -100.34654 18.068325 -75.17538 9.319486 -49.1875 4C -48.468605 3.852644 -47.74971 3.7052882 -47.009033 3.5534668C -31.362743 0.5796091 -15.889319 -0.06050362 0 0z" stroke="none" fill="#1877F2" fill-rule="nonzero" />
            <path transform="matrix(1 0 0 1 313.9375 99.75)"  d="M0 0C 1.0070549 0.0036557 1.0070549 0.0036557 2.0344543 0.00738525C 14.12445 0.05852389 26.057076 0.82142025 38.0625 2.25C 39.673157 2.4311786 41.283833 2.6121726 42.89453 2.7929688C 53.649693 4.043596 53.649693 4.043596 56.0625 5.25C 56.0625 26.04 56.0625 46.83 56.0625 68.25C 36.375 68.5 36.375 68.5 30.247314 68.54785C 16.416569 68.7519 3.0953813 70.03829 -7.6132812 79.77344C -14.366759 86.91235 -16.990465 96.31618 -17.142822 105.95825C -17.163004 107.094604 -17.183186 108.23095 -17.20398 109.40173C -17.220455 110.5853 -17.23693 111.76885 -17.253906 112.98828C -17.281883 114.63202 -17.281883 114.63202 -17.310425 116.30896C -17.378605 120.393394 -17.438828 124.47796 -17.5 128.5625C -17.644375 137.69937 -17.78875 146.83624 -17.9375 156.25C 5.4925 156.25 28.9225 156.25 53.0625 156.25C 51.937485 168.62518 51.937485 168.62518 51.13867 173.63599C 50.87335 175.31746 50.87335 175.31746 50.60266 177.03291C 50.414097 178.20412 50.22553 179.37534 50.03125 180.58203C 49.73728 182.4351 49.73728 182.4351 49.437378 184.3256C 48.920883 187.57703 48.401257 190.82794 47.880066 194.07861C 47.35086 197.38464 46.826103 200.69139 46.30078 203.99805C 43.435295 222.01323 43.435295 222.01323 42.0625 230.25C 22.2625 230.25 2.4625 230.25 -17.9375 230.25C -17.9375 289.65 -17.9375 349.05 -17.9375 410.25C -38.686848 412.55548 -38.686848 412.55548 -46.722656 412.51562C -47.633495 412.51755 -48.544334 412.51944 -49.482773 412.52142C -51.375317 412.52277 -53.26787 412.51923 -55.1604 412.51074C -58.00103 412.5 -60.84103 412.5107 -63.68164 412.52344C -74.85475 412.53168 -85.90599 412.15683 -96.9375 410.25C -97.9375 409.25 -97.9375 409.25 -98.06055 406.33145C -98.05962 405.01236 -98.0587 403.69327 -98.057755 402.33423C -98.05861 401.60242 -98.05946 400.8706 -98.06034 400.1166C -98.062004 397.646 -98.05647 395.17545 -98.051025 392.70483C -98.05074 390.94116 -98.0509 389.1775 -98.05147 387.41382C -98.05176 382.6103 -98.04586 377.80682 -98.038895 373.0033C -98.03266 367.9891 -98.03206 362.9749 -98.03087 357.96072C -98.027756 348.45862 -98.01954 338.95657 -98.00952 329.4545C -97.99836 318.63968 -97.99285 307.8249 -97.98782 297.01007C -97.977356 274.7567 -97.959015 252.50336 -97.9375 230.25C -119.3875 230.25 -140.8375 230.25 -162.9375 230.25C -162.9375 205.83 -162.9375 181.41 -162.9375 156.25C -141.4875 156.25 -120.0375 156.25 -97.9375 156.25C -97.98971 148.87527 -97.98971 148.87527 -98.04297 141.35156C -98.058334 138.1979 -98.07278 135.0443 -98.083984 131.89062C -98.101776 126.907776 -98.12259 121.9251 -98.16382 116.94238C -98.196915 112.91581 -98.214455 108.88941 -98.22213 104.86271C -98.227585 103.34246 -98.23823 101.82222 -98.25469 100.30205C -98.40134 86.169205 -97.257904 71.61738 -92.125 58.3125C -91.86638 57.616325 -91.607765 56.92015 -91.34131 56.20288C -84.23361 37.60707 -71.3364 22.044752 -53.9375 12.25C -53.160194 11.8001175 -52.38289 11.350234 -51.58203 10.886719C -35.562363 2.2194598 -17.965702 -0.12857617 0 0z" stroke="none" fill="#FEFEFE" fill-rule="nonzero" />
		</g>
	</g>
</g>
</svg>