<?xml version="1.0" standalone="no"?>
<!DOCTYPE svg PUBLIC "-//W3C//DTD SVG 1.0//EN" "http://www.w3.org/TR/2001/REC-SVG-20010904/DTD/svg10.dtd">
<svg xmlns="http://www.w3.org/2000/svg" xmlns:xlink="http://www.w3.org/1999/xlink" id="body_1" width="31" height="31">

<g transform="matrix(0.060546875 0 0 0.060546875 0 0)">
    <path transform="matrix(1 0 0 1 202.23042 -0.16725707)"  d="M0 0C 2.9724896 -0.00071823 5.9449744 -0.00286694 8.917463 -0.00549722C 19.348072 -0.01470962 29.77867 -0.01883751 40.209282 -0.01804566C 49.833363 -0.01744681 59.457386 -0.02797144 69.08145 -0.04378933C 77.42456 -0.05699842 85.76765 -0.062224 94.11076 -0.06159025C 99.05788 -0.06133904 104.004944 -0.06397551 108.95204 -0.0747683C 166.78474 -0.19200502 224.64119 0.48042363 268.31647 43.686787C 276.50613 51.96774 283.08667 59.954678 288.7696 70.16726C 289.36514 71.223 289.9607 72.27874 290.57428 73.36648C 308.35385 106.75258 309.92758 145.02771 309.91486 182.02003C 309.91785 183.80518 309.92126 185.59032 309.92502 187.37546C 309.93375 192.16133 309.9362 196.94719 309.93683 201.73306C 309.93756 204.74324 309.9397 207.7534 309.94235 210.76357C 309.95157 221.3227 309.9557 231.8818 309.9549 242.44093C 309.95428 252.18942 309.9648 261.93784 309.98062 271.6863C 309.99384 280.13214 309.99905 288.57794 309.99844 297.0238C 309.99817 302.03406 310.00082 307.04425 310.0116 312.05447C 310.12625 369.33353 309.24588 427.46448 266.5196 470.85477C 259.76453 477.54318 253.01826 483.37073 244.76958 488.16727C 244.08734 488.56992 243.4051 488.9726 242.7022 489.38748C 201.1884 513.5202 154.02052 512.3282 107.53917 512.33453C 104.56668 512.3352 101.59419 512.3374 98.621704 512.34C 88.19109 512.34924 77.7605 512.35333 67.32989 512.35254C 57.705807 512.352 48.081783 512.3625 38.457718 512.3783C 30.11461 512.39154 21.77152 512.3967 13.428403 512.3961C 8.48129 512.3959 3.5342276 512.3985 -1.4128745 512.4093C -116.51734 512.6428 -116.51734 512.6428 -156.7353 472.64334C -158.17558 471.22137 -159.65169 469.836 -161.12886 468.45242C -194.1244 436.98187 -201.23273 390.3241 -202.28838 346.77637C -202.37677 341.2892 -202.37756 335.8022 -202.37569 330.31448C -202.37868 328.52933 -202.3821 326.7442 -202.38586 324.95905C -202.39458 320.1732 -202.39703 315.38733 -202.39767 310.60144C -202.39839 307.59128 -202.40054 304.58112 -202.40317 301.57095C -202.41238 291.0118 -202.4165 280.4527 -202.41573 269.8936C -202.41512 260.1451 -202.42564 250.39667 -202.44147 240.64821C -202.45467 232.20238 -202.4599 223.75656 -202.45926 215.31073C -202.45901 210.30048 -202.46165 205.29027 -202.47244 200.28003C -202.70142 85.87571 -202.70142 85.87571 -162.7065 45.662373C -161.28455 44.222088 -159.89917 42.745983 -158.51558 41.268818C -117.61021 -1.618745 -54.749653 0.00745425 0 0zM-52.605415 48.074482C -53.83616 48.154022 -55.066902 48.23356 -56.334938 48.315506C -83.529785 50.284954 -107.61668 57.580723 -127.230415 77.16726C -128.04639 77.971634 -128.86237 78.77601 -129.70308 79.60476C -160.45404 111.67437 -155.55743 164.1796 -155.49907 205.23297C -155.49388 210.04163 -155.49873 214.8503 -155.50185 219.65895C -155.50545 227.72359 -155.50076 235.78818 -155.49117 243.8528C -155.48029 253.08403 -155.48381 262.3152 -155.49481 271.54642C -155.50398 279.57208 -155.50513 287.59775 -155.49994 295.6234C -155.49687 300.37305 -155.49625 305.12265 -155.503 309.87228C -155.52454 327.4532 -155.45988 344.99222 -154.3232 362.54227C -154.24365 363.773 -154.16411 365.00375 -154.08217 366.2718C -152.15039 392.94644 -145.18307 416.62448 -126.230415 436.16727C -125.69159 436.77957 -125.152756 437.39188 -124.5976 438.02274C -104.75637 459.8082 -72.26976 463.4101 -44.627026 464.8375C -29.19459 465.52103 -13.723983 465.33234 1.7199631 465.3345C 4.5961213 465.33524 7.4722753 465.33737 10.348433 465.34C 20.440723 465.3492 30.533003 465.35336 40.625298 465.35257C 49.937523 465.35196 59.249695 465.3625 68.561905 465.3783C 76.63406 465.3915 84.70621 465.39673 92.77838 465.39612C 97.56507 465.39584 102.35171 465.3985 107.13838 465.40927C 124.83517 465.44635 142.49092 465.40915 160.15703 464.26614C 161.99858 464.1474 161.99858 464.1474 163.87733 464.0263C 194.09544 461.83337 220.24954 452.24048 240.76958 429.16727C 243.38664 425.6384 245.63248 422.0028 247.76958 418.16727C 248.21819 417.39124 248.66678 416.61523 249.12895 415.8157C 266.56918 383.62668 263.08942 341.90704 263.03824 306.43695C 263.03305 301.69016 263.0379 296.94336 263.04102 292.19656C 263.04462 284.23627 263.03995 276.276 263.03033 268.3157C 263.01944 259.20886 263.02298 250.10211 263.03397 240.99529C 263.04315 233.07233 263.04428 225.1494 263.0391 217.22644C 263.03604 212.53995 263.0354 207.8535 263.04218 203.167C 263.0641 185.52605 262.96298 167.9314 261.86237 150.3196C 261.7828 149.04037 261.70328 147.76114 261.62134 146.44313C 259.7191 119.10448 252.46361 94.88864 232.76958 75.16726C 231.96521 74.35128 231.16083 73.5353 230.33208 72.6946C 198.26247 41.943638 145.75723 46.840233 104.70387 46.898605C 99.89521 46.903786 95.08655 46.89894 90.277885 46.895832C 82.21326 46.892227 74.14866 46.896904 66.08404 46.906513C 56.852806 46.917393 47.62166 46.913864 38.390427 46.902863C 30.36475 46.893692 22.339096 46.89255 14.313414 46.89774C 9.563784 46.900806 4.8141947 46.90142 0.06456733 46.894665C -17.51633 46.873142 -35.055378 46.937794 -52.605415 48.074482z" stroke="none" fill="#F43931" fill-rule="nonzero" />
    <path transform="matrix(1 0 0 1 340.72266 154.27734)"  d="M0 0C 2.485121 2.1855237 4.8884583 4.4326487 7.2773438 6.7226562C 8.097187 7.479336 8.917031 8.236015 9.761719 9.015625C 32.893845 31.034246 46.521805 63.964058 47.48047 95.74609C 48.025383 133.05356 36.276115 166.55032 10.277344 193.72266C 9.555469 194.5193 8.833593 195.31593 8.089844 196.13672C -14.35188 220.01895 -47.367172 232.70131 -79.71094 233.9375C -114.94844 234.82137 -148.47643 223.22157 -174.36328 198.98438C -175.14188 198.238 -175.92047 197.49164 -176.72266 196.72266C -177.95242 195.58763 -177.95242 195.58763 -179.20703 194.42969C -202.33916 172.41107 -215.96712 139.48126 -216.92578 107.69922C -217.47034 70.41639 -205.73816 36.861446 -179.72266 9.722656C -178.96597 8.902813 -178.20929 8.082969 -177.42969 7.2382812C -131.22284 -41.305298 -50.270523 -42.04837 0 0zM-141.72266 38.722656C -142.4845 39.389103 -143.24632 40.055546 -144.03125 40.742188C -158.30437 54.07531 -168.87102 75.134834 -169.72266 94.72266C -169.77422 95.72297 -169.82578 96.72328 -169.8789 97.75391C -170.49278 120.46739 -162.75294 141.63647 -147.72266 158.72266C -146.72299 159.86542 -146.72299 159.86542 -145.70312 161.03125C -132.37 175.30437 -111.31048 185.87102 -91.72266 186.72266C -90.72234 186.77422 -89.72203 186.82578 -88.69141 186.8789C -65.97792 187.49278 -44.80884 179.75294 -27.722656 164.72266C -26.960821 164.05621 -26.198984 163.38977 -25.414062 162.70312C -11.140941 149.37 -0.57430065 128.31047 0.27734375 108.72266C 0.32890624 107.72234 0.38046876 106.72203 0.43359375 105.69141C 1.0474719 82.97792 -6.6923695 61.80884 -21.722656 44.722656C -22.389101 43.96082 -23.055548 43.198986 -23.742188 42.414062C -37.07531 28.140942 -58.134834 17.5743 -77.72266 16.722656C -78.72297 16.671093 -79.72328 16.619532 -80.75391 16.566406C -103.46739 15.952528 -124.63647 23.69237 -141.72266 38.722656z" stroke="none" fill="#FE1B16" fill-rule="nonzero" />
    <path transform="matrix(1 0 0 1 411.25 93.6875)"  d="M0 0C 7.31404 5.9989905 11.939896 13.280347 13.03125 22.753906C 13.38404 32.14694 10.911805 40.069336 4.8203125 47.26953C -1.9815007 53.98151 -9.757586 56.93182 -19.25 57.3125C -28.17925 56.823715 -34.264366 53.741997 -40.9375 48C -47.801575 40.02283 -50.60856 32.327988 -50.128906 21.605469C -48.82662 13.08019 -44.568783 5.9090557 -38 0.375C -26.537716 -7.779376 -11.613058 -8.11808 0 0z" stroke="none" fill="#EC0084" fill-rule="nonzero" />
</g>
</svg>