<?xml version="1.0" standalone="no"?>
<!DOCTYPE svg PUBLIC "-//W3C//DTD SVG 1.0//EN" "http://www.w3.org/TR/2001/REC-SVG-20010904/DTD/svg10.dtd">
<svg xmlns="http://www.w3.org/2000/svg" xmlns:xlink="http://www.w3.org/1999/xlink" id="body_1" width="31" height="31">

<g transform="matrix(0.060546875 0 0 0.060546875 0 0)">
    <path transform="matrix(1 0 0 1 255.625 -0.3125)"  d="M0 0C 1.0179062 0.00215515 2.0358124 0.0043103 3.0845642 0.00653076C 17.693636 0.05620146 32.025757 0.3070981 46.375 3.3125C 47.349854 3.5111768 48.324707 3.7098534 49.3291 3.9145508C 97.710976 14.0351715 141.69928 35.951687 177.375 70.3125C 178.36403 71.26069 178.36403 71.26069 179.37305 72.22803C 188.8613 81.372475 197.60121 90.66984 205.375 101.3125C 206.23306 102.46355 207.09114 103.61459 207.94922 104.765625C 213.98737 112.9568 219.34596 121.47054 224.375 130.3125C 224.73949 130.9443 225.10396 131.57611 225.47949 132.22705C 247.08534 169.97533 256.852 212.7419 256.6875 255.9375C 256.68533 256.9554 256.6832 257.97333 256.68097 259.02206C 256.6313 273.63113 256.3804 287.96326 253.375 302.3125C 253.07698 303.77478 253.07698 303.77478 252.77295 305.2666C 242.65233 353.64847 220.73581 397.63678 186.375 433.3125C 185.74287 433.97186 185.11075 434.63123 184.45947 435.31055C 175.31502 444.7988 166.01765 453.5387 155.375 461.3125C 154.22395 462.17056 153.0729 463.02863 151.92188 463.88672C 143.73224 469.9243 135.22961 475.30707 126.375 480.3125C 125.667786 480.7147 124.96058 481.11688 124.23193 481.53125C 101.09654 494.55667 75.92538 503.3055 49.9375 508.625C 49.218605 508.77237 48.49971 508.9197 47.759033 509.07153C 33.083397 511.8609 18.558311 512.66144 3.647705 512.6282C 0.7081151 512.625 -2.2304559 512.64856 -5.169922 512.6738C -18.543062 512.7185 -31.439167 511.513 -44.625 509.3125C -46.33055 509.0303 -46.33055 509.0303 -48.070557 508.74243C -91.33803 500.97046 -132.38794 480.98346 -165.625 452.3125C -166.37007 451.67828 -167.11516 451.04407 -167.88281 450.39062C -181.3878 438.5795 -194.05919 425.8289 -204.625 411.3125C -205.48149 410.16254 -206.33826 409.01282 -207.19531 407.86328C -213.23534 399.67316 -218.61868 391.1687 -223.625 382.3125C -224.02719 381.6053 -224.42938 380.89807 -224.84375 380.16943C -237.86917 357.03403 -246.61801 331.86288 -251.9375 305.875C -252.08485 305.1561 -252.23221 304.43723 -252.38403 303.69653C -255.3579 288.05023 -255.998 272.5768 -255.9375 256.6875C -255.93535 255.66959 -255.9332 254.65169 -255.93097 253.60294C -255.8813 238.99387 -255.6304 224.66174 -252.625 210.3125C -252.42633 209.33765 -252.22765 208.3628 -252.02295 207.3584C -241.90233 158.97652 -219.98581 114.98822 -185.625 79.3125C -184.99287 78.653145 -184.36075 77.99379 -183.70947 77.31445C -174.56502 67.826195 -165.26765 59.086296 -154.625 51.3125C -153.47395 50.454437 -152.3229 49.596367 -151.17188 48.73828C -142.98224 42.700726 -134.47961 37.31793 -125.625 32.3125C -124.917786 31.910313 -124.21058 31.508125 -123.48193 31.09375C -100.34654 18.068325 -75.17538 9.319486 -49.1875 4C -48.468605 3.852644 -47.74971 3.7052882 -47.009033 3.5534668C -31.362743 0.5796091 -15.889319 -0.06050362 0 0z" stroke="none" fill="#00A6DE" fill-rule="nonzero" />
    <path transform="matrix(1 0 0 1 301.8125 149.6875)"  d="M0 0C 1.4008887 -0.02416992 1.4008887 -0.02416992 2.8300781 -0.04882812C 14.787662 -0.05712624 26.114254 3.8904574 35.25 11.6875C 37.995163 13.785784 39.703167 14.760099 43.1875 14.5625C 51.671444 12.921877 60.63046 9.516282 68.02734 5.0664062C 69.59162 4.1982226 69.59162 4.1982226 71.1875 3.3125C 73.625 4.0625 73.625 4.0625 75.1875 5.3125C 73.99496 14.866879 68.63148 22.408237 62.1875 29.3125C 63.056328 29.03535 63.925156 28.758204 64.82031 28.472656C 65.97273 28.11043 67.12515 27.748203 68.3125 27.375C 69.449455 27.015352 70.5864 26.655703 71.75781 26.285156C 74.901825 25.393517 77.95644 24.77899 81.1875 24.3125C 81.90625 26.507812 81.90625 26.507812 82.1875 29.3125C 77.648056 37.309315 69.68957 43.97781 63.154297 50.36084C 62.52588 50.97524 61.89746 51.589638 61.25 52.222656C 60.6841 52.770588 60.118202 53.31852 59.535156 53.883057C 57.03204 56.538086 56.999435 58.73625 56.79297 62.273438C 53.91089 106.82235 37.677975 146.8982 4.1875 177.3125C -23.335835 200.78287 -57.98542 213.01831 -94 212.75C -94.85457 212.74728 -95.70914 212.74458 -96.5896 212.74179C -109.68445 212.6789 -122.15551 211.92577 -134.8125 208.3125C -136.08093 207.97348 -137.34938 207.63446 -138.65625 207.28516C -148.32326 204.383 -157.38481 200.0036 -166.45312 195.61719C -167.22173 195.24577 -167.99033 194.87436 -168.78223 194.4917C -170.85857 193.28575 -172.31563 192.18993 -173.8125 190.3125C -173.39145 185.89145 -173.39145 185.89145 -171.8125 184.3125C -170.45102 184.20349 -169.08444 184.15668 -167.71875 184.13672C -147.60844 183.64705 -127.82165 179.88182 -110.41406 169.19531C -108.8125 168.3125 -108.8125 168.3125 -106.8125 168.3125C -106.8125 167.6525 -106.8125 166.9925 -106.8125 166.3125C -107.84375 166.29187 -108.875 166.27126 -109.9375 166.25C -122.90249 164.57191 -134.1897 155.26122 -142.125 145.4375C -145.6694 140.38419 -150.27144 133.81496 -149.4414 127.48047C -149.23387 126.76504 -149.02632 126.04961 -148.8125 125.3125C -145.8425 125.3125 -142.8725 125.3125 -139.8125 125.3125C -140.58594 124.77883 -141.35938 124.245155 -142.15625 123.69531C -155.07718 114.45237 -164.92462 102.37915 -167.8125 86.3125C -168.03447 81.964905 -167.99652 77.660706 -167.8125 73.3125C -162.94354 73.9087 -158.48459 74.88227 -153.8125 76.3125C -154.2482 75.753044 -154.6839 75.193596 -155.13281 74.61719C -165.99002 59.999916 -169.53186 45.27082 -167.1875 27.25C -165.99208 20.666414 -163.07562 15.099924 -159.8125 9.3125C -155.60883 9.80197 -153.93648 10.770149 -151.3125 14.0625C -150.71437 14.788242 -150.11626 15.513985 -149.5 16.261719C -148.94313 16.938477 -148.38625 17.615234 -147.8125 18.3125C -146.16653 19.999615 -144.50012 21.667063 -142.8125 23.3125C -142.1338 24.058867 -142.1338 24.058867 -141.4414 24.820312C -123.07524 44.514706 -89.077 61.458115 -62.039062 62.410156C -60.75129 62.392754 -60.75129 62.392754 -59.4375 62.375C -58.126522 62.361465 -58.126522 62.361465 -56.789062 62.347656C -55.810665 62.330254 -55.810665 62.330254 -54.8125 62.3125C -54.78672 61.080154 -54.760937 59.847813 -54.734375 58.578125C -54.199017 40.828705 -49.923313 27.766996 -37.8125 14.3125C -34.726562 11.863281 -34.726562 11.863281 -31.4375 9.625C -29.817148 8.505449 -29.817148 8.505449 -28.164062 7.3632812C -19.055971 1.7901484 -10.5016575 -0.03579297 0 0z" stroke="none" fill="#FEFEFE" fill-rule="nonzero" />
</g>
</svg>