<?xml version="1.0" standalone="no"?>
<!DOCTYPE svg PUBLIC "-//W3C//DTD SVG 1.0//EN" "http://www.w3.org/TR/2001/REC-SVG-20010904/DTD/svg10.dtd">
<svg xmlns="http://www.w3.org/2000/svg" xmlns:xlink="http://www.w3.org/1999/xlink" id="body_1" width="31" height="31">

<g transform="matrix(0.060546875 0 0 0.060546875 0 0)">
    <path transform="matrix(1 0 0 1 248.2927 76.74286)"  d="M0 0C 5.2664766 0.0075446 10.532878 0.00480818 15.799352 -0.00360447C 208.66783 -0.30348217 208.66783 -0.30348217 237.7073 27.257137C 253.85658 44.060337 257.11835 65.8455 259.8948 88.06964C 260.04974 89.29272 260.20468 90.51579 260.3643 91.77594C 263.5626 119.4149 264.0832 147.1122 264.02518 174.90125C 264.0197 177.61081 264.01736 180.32036 264.0153 183.02994C 263.98383 209.51984 263.65857 235.90334 260.7073 262.25714C 260.62997 262.95923 260.55267 263.6613 260.473 264.38464C 259.47208 273.38406 258.2563 282.33472 256.7073 291.25714C 256.55682 292.1242 256.4063 292.99124 256.25125 293.88458C 252.75874 313.01636 244.00839 328.83475 227.87137 340.25323C 218.36116 346.27637 208.78673 349.5606 197.7073 351.25714C 196.58365 351.43625 196.58365 351.43625 195.43729 351.61896C 133.62383 361.10693 68.92437 359.43692 6.519811 359.44464C 5.1037593 359.44543 5.1037593 359.44543 3.6591008 359.44623C -32.103397 359.46448 -67.8754 359.0019 -103.60519 357.38214C -104.99938 357.3201 -104.99938 357.3201 -106.421745 357.25684C -202.0744 352.94257 -202.0744 352.94257 -224.78488 329.13214C -255.27048 294.18292 -248.70593 226.81114 -248.61055 183.06422C -248.6051 180.46513 -248.60274 177.86606 -248.60068 175.26697C -248.56801 148.8482 -248.11649 122.54916 -245.2927 96.25714C -245.21773 95.54713 -245.14276 94.83711 -245.06552 94.10559C -242.12715 66.586334 -238.3516 40.07077 -216.00754 21.20245C -164.36667 -15.800643 -61.72985 -0.09869923 0 0z" stroke="none" fill="#FF0000" fill-rule="nonzero" />
    <path transform="matrix(1 0 0 1 205 180)"  d="M0 0C 3.7122998 1.4849199 6.906007 2.9680731 10.359375 4.90625C 11.383454 5.479802 12.407535 6.0533543 13.4626465 6.644287C 14.547473 7.2566724 15.632299 7.8690577 16.75 8.5C 17.87672 9.133655 19.003443 9.767309 20.164307 10.420166C 26.956615 14.250816 33.712223 18.135742 40.419678 22.112793C 55.298866 30.932575 70.335815 39.48669 85.36032 48.05594C 95.01255 53.561504 104.64853 59.09372 114.25 64.6875C 115.219536 65.25155 116.18907 65.81559 117.18799 66.39673C 122.51775 69.5096 127.78387 72.70012 133 76C 129.76733 78.69081 126.57223 80.93885 122.88672 82.96094C 121.40498 83.78054 121.40498 83.78054 119.89331 84.6167C 118.835396 85.19694 117.77747 85.777176 116.6875 86.375C 108.13093 91.11561 99.623375 95.92269 91.1875 100.875C 82.53147 105.95169 73.84269 110.967606 65.125 115.9375C 55.988983 121.147675 46.860424 126.37012 37.75 131.625C 36.17255 132.53476 36.17255 132.53476 34.563232 133.46289C 29.05742 136.64276 23.560532 139.83739 18.074219 143.05078C 16.40311 144.02893 16.40311 144.02893 14.698242 145.02686C 12.563548 146.2777 10.430037 147.53053 8.297852 148.78564C 6.880044 149.61685 6.880044 149.61685 5.4335938 150.46484C 4.181471 151.20142 4.181471 151.20142 2.9040527 151.95288C 1 153 1 153 0 153C 0 102.51 0 52.02 0 0z" stroke="none" fill="#FFFEFE" fill-rule="nonzero" />
</g>
</svg>